<?xml version="1.0" encoding="UTF-8" standalone="no"?>
<svg width="601px" height="353px" viewBox="0 0 601 353" version="1.1" xmlns="http://www.w3.org/2000/svg" xmlns:xlink="http://www.w3.org/1999/xlink" style="background: #2B3E50;">
    <!-- Generator: Sketch 39.1 (31720) - http://www.bohemiancoding.com/sketch -->
    <title>Artboard</title>
    <desc>Created with Sketch.</desc>
    <defs>
        <path d="M3.77023077,84 C1.68784615,84 4.54747351e-13,82.3058276 4.54747351e-13,80.2156379 L4.54747351e-13,3.41315517 C4.54747351e-13,1.82375862 1.28446154,0.534482759 2.86792308,0.534482759 L43.1303077,0.534482759 C44.7155385,0.534482759 46,1.82375862 46,3.41315517 L46,80.2156379 C46,82.3058276 44.3121538,84 42.2297692,84 L3.77023077,84 Z" id="path-1"></path>
    </defs>
    <g id="Page-1" stroke="none" stroke-width="1" fill="none" fill-rule="evenodd">
        <g id="Artboard">
            <g id="Group-2" transform="translate(60.000000, 60.000000)">
                <path d="M31.3,91.6620524 C29.099989,93.4447459 27.933334,95.660346 27.8,98.3089192 C27.933334,100.651888 29.099989,102.663755 31.3,104.34458 C33.500011,106.025405 36.199984,106.865805 39.4,106.865805 L53,106.865805 C57.933358,106.865805 62.699977,107.629805 67.3,109.157828 C71.900023,110.685851 75.999982,112.799585 79.6,115.499092 C83.200018,118.198599 86.066656,121.356466 88.2,124.972787 C90.333344,128.589108 91.4,132.434575 91.4,136.509303 C91.4,140.482163 90.40001,144.25123 88.4,147.816617 C86.39999,151.382004 83.666684,154.488938 80.2,157.137511 C76.733316,159.786084 72.66669,161.899818 68,163.478775 C63.33331,165.057732 58.33336,165.898132 53,166 L17.4,166 C13.39998,166 10.133346,165.0068 7.6,163.02037 C5.066654,161.03394 3.8,158.563673 3.8,155.609495 C3.8,152.859054 5.099987,150.465187 7.7,148.427823 C10.300013,146.390459 13.533314,145.371793 17.4,145.371793 L53,145.371793 C56.066682,145.371793 58.799988,144.505926 61.2,142.774166 C63.600012,141.042407 64.8,138.95414 64.8,136.509303 C64.8,133.962598 63.633345,131.848865 61.3,130.16804 C58.966655,128.487214 56.266682,127.595881 53.2,127.494013 L39.4,127.494013 C34.333308,127.392145 29.46669,126.577211 24.8,125.049188 C20.13331,123.521165 16.033351,121.458365 12.5,118.860726 C8.966649,116.263087 6.133344,113.18162 4,109.616233 C1.866656,106.050846 0.8,102.179912 0.8,98.0033161 C0.8,94.2341927 1.79999,90.5669925 3.8,87.0016055 C5.80001,83.4362185 8.566649,80.2783516 12.1,77.5279102 C15.633351,74.7774688 19.73331,72.5618687 24.4,70.8810434 C29.06669,69.2002181 34.06664,68.359818 39.4,68.359818 L75,68.359818 C78.600018,68.359818 81.666654,69.3530181 84.2,71.339448 C86.733346,73.3258779 88.133332,75.7961447 88.4,78.7503225 C88.4,81.7045003 87.133346,84.1493005 84.6,86.0847963 C82.066654,88.0202921 78.866686,88.9880255 75,88.9880255 L39.4,88.9880255 C36.199984,88.9880255 33.500011,89.8793589 31.3,91.6620524 Z M177.8,98.9201254 L177.8,111.29705 L177.8,132.078059 L177.8,155.762297 C177.8,158.614607 176.500013,161.03394 173.9,163.02037 C171.299987,165.0068 168.133352,166 164.4,166 C160.533314,166 157.300013,165.0068 154.7,163.02037 C152.099987,161.03394 150.8,158.614607 150.8,155.762297 L150.8,137.884517 L124.6,137.884517 L124.6,155.762297 C124.6,158.614607 123.26668,161.03394 120.6,163.02037 C117.93332,165.0068 114.666686,166 110.8,166 C107.066648,166 103.933346,165.0068 101.4,163.02037 C98.8666542,161.03394 97.6000002,158.614607 97.6000002,155.762297 L97.6000002,132.078059 L97.6000002,111.29705 L97.6000002,99.0729269 L97.6000002,98.6145223 C97.6000002,94.4379261 98.6666562,90.5160592 100.8,86.848804 C102.933344,83.1815487 105.799982,79.9727486 109.4,77.2223071 C113.000018,74.4718657 117.233309,72.3071989 122.1,70.7282418 C126.966691,69.1492847 132.133306,68.359818 137.6,68.359818 C143.066694,68.359818 148.233309,69.1492847 153.1,70.7282418 C157.966691,72.3071989 162.199982,74.4718657 165.8,77.2223071 C169.400018,79.9727486 172.266656,83.1815487 174.4,86.848804 C176.533344,90.5160592 177.6,94.4379261 177.6,98.6145223 C177.6,98.6145223 177.666666,98.716389 177.8,98.9201254 Z M146.9,91.9676554 C144.299987,89.9812255 141.200018,88.9880255 137.6,88.9880255 C133.999982,88.9880255 130.933346,89.9812255 128.4,91.9676554 C125.866654,93.9540853 124.6,96.3224855 124.6,99.0729269 L124.6,117.25631 L150.8,117.25631 L150.8,99.0729269 C150.8,96.3224855 149.500013,93.9540853 146.9,91.9676554 Z M364.400001,135.668895 C367.066681,137.655325 368.400001,140.125592 368.400001,143.079769 C368.400001,144.098451 368.16667,145.066185 367.700001,145.982999 C367.233332,146.899812 366.666671,147.867546 366.000001,148.886228 C362.133315,154.081506 356.666703,158.232573 349.600001,161.339553 C342.533299,164.446533 334.933375,166 326.800001,166 C320.933305,166 315.266695,165.108667 309.800001,163.325973 C304.333307,161.54328 299.500022,159.098479 295.300001,155.991499 C291.09998,152.884519 287.76668,149.217319 285.300001,144.989789 C282.833322,140.762258 281.600001,136.203725 281.600001,131.314051 L281.600001,103.198568 C281.600001,98.6144994 282.766656,94.2342324 285.100001,90.0576362 C287.433346,85.88104 290.666647,82.1883731 294.800001,78.9795248 C298.933355,75.7706765 303.733307,73.2240097 309.200001,71.339448 C314.666695,69.4548863 320.533303,68.5126195 326.800001,68.5126195 C334.800041,68.5126195 342.333299,70.0660863 349.400001,73.1730664 C356.466703,76.2800465 362.066647,80.5839134 366.200001,86.0847963 C366.733337,86.7978737 367.233332,87.6637404 367.700001,88.6824224 C368.16667,89.7011044 368.400001,90.6688378 368.400001,91.5856516 C368.400001,94.4379612 367.066681,96.8827613 364.400001,98.9201254 C361.733321,100.957489 358.533353,101.976156 354.800001,101.976156 C351.866653,101.976156 349.466677,101.390423 347.600001,100.218938 C345.733325,99.0474541 344.066675,97.595854 342.600001,95.8640946 C340.999993,93.8267306 338.833348,92.1968639 336.100001,90.9744454 C333.366654,89.752027 330.266685,89.140827 326.800001,89.140827 C324.266655,89.140827 321.900012,89.4973604 319.700001,90.2104378 C317.49999,90.9235152 315.566676,91.9167152 313.900001,93.1900677 C312.233326,94.4634202 310.900006,95.9659537 309.900001,97.6977131 C308.899996,99.4294725 308.400001,101.263073 308.400001,103.198568 L308.400001,131.314051 C308.400001,133.249547 308.899996,135.083147 309.900001,136.814906 C310.900006,138.546666 312.233326,140.049199 313.900001,141.322552 C315.566676,142.595904 317.49999,143.589104 319.700001,144.302182 C321.900012,145.015259 324.266655,145.371793 326.800001,145.371793 C330.266685,145.371793 333.333321,144.760593 336.000001,143.538174 C338.666681,142.315756 340.866659,140.685889 342.600001,138.648525 C344.066675,136.916766 345.599993,135.490632 347.200001,134.370082 C348.800009,133.249532 351.399983,132.689265 355.000001,132.689265 C358.600019,132.689265 361.733321,133.682465 364.400001,135.668895 Z M450.700001,148.427823 C453.300014,150.465187 454.600001,152.859054 454.600001,155.609495 C454.600001,158.563673 453.300014,161.03394 450.700001,163.02037 C448.099988,165.0068 444.933353,166 441.200001,166 L388.000001,166 C384.533317,166 381.433348,165.0068 378.700001,163.02037 C375.966654,161.03394 374.600001,158.563673 374.600001,155.609495 L374.600001,78.7503225 C374.600001,76.1017493 375.866655,73.7078825 378.400001,71.5686503 C380.933347,69.4294181 384.133315,68.359818 388.000001,68.359818 L441.200001,68.359818 C444.933353,68.359818 448.099988,69.3784847 450.700001,71.4158487 C453.300014,73.4532128 454.600001,75.8980129 454.600001,78.7503225 C454.600001,81.7045003 453.300014,84.1493005 450.700001,86.0847963 C448.099988,88.0202921 444.933353,88.9880255 441.200001,88.9880255 L401.200001,88.9880255 L401.200001,103.809775 L427.800001,103.809775 C431.400019,103.809775 434.533321,104.828441 437.200001,106.865805 C439.866681,108.903169 441.200001,111.347969 441.200001,114.200279 C441.200001,117.052589 439.866681,119.471922 437.200001,121.458352 C434.533321,123.444782 431.400019,124.437982 427.800001,124.437982 L401.200001,124.437982 L401.200001,145.371793 L441.200001,145.371793 C444.933353,145.371793 448.099988,146.390459 450.700001,148.427823 Z" id="SAUCE" fill="#FFFFFF"></path>
                <path d="M210.5,168 C207.614187,169.023413 205.16701,169.902813 204,171.5 C203.579934,172.074909 203.207671,173.867276 203,174.5 C202.508273,175.998175 205.326629,177.153149 206.025699,178.975505 C207.020007,181.567496 209.385326,184.362432 213.121728,187.360398 C213.121728,187.360398 214.816363,192.864637 217,194.499999 C220.509384,197.128236 227.522543,199.276896 232.5,202.500001 C237.171165,205.524771 241.173726,213.704569 245,216.500001 C251.176201,221.012264 256.5,223.000001 256.5,223.000001 C258.835124,224.748815 261.666029,222.742454 265.933988,223.991606 C270.201947,225.240758 274.269208,225.865325 278.135894,225.865325 C281.869246,225.865325 284.168588,225.240758 285.033988,223.991606 C285.899388,222.742454 285.164538,221.243494 282.829414,219.49468 C282.829414,219.49468 265.150477,204.278957 254.763531,196.499999 C250.847915,193.567529 239.921728,187.360398 239.921728,187.360398 C238.253782,186.111245 237.2318,184.971411 236.855749,183.94086 C236.479699,182.91031 236.582928,181.989074 237.165438,181.177125 C237.747949,180.365176 238.847302,179.740609 240.463532,179.303406 C242.079762,178.866202 244.154519,178.647604 246.687865,178.647604 C249.221211,178.647604 251.913073,178.866202 254.763532,179.303406 C257.613991,179.740609 260.414599,180.365176 263.165438,181.177125 C265.916278,181.989074 268.479689,182.91031 270.855749,183.94086 C273.23181,184.971411 275.253782,186.111245 276.921728,187.360398 C276.921728,187.360398 284.57126,196.929781 289.33844,200.500001 C298.873823,207.641209 319.829414,219.49468 319.829414,219.49468 C322.164538,221.243494 325.466029,222.742454 329.733988,223.991606 C334.001947,225.240758 338.069208,225.865325 341.935894,225.865325 C345.669246,225.865325 348.001921,225.240758 348.933988,223.991606 C349.866055,222.742454 349.164538,221.243494 346.829414,219.49468 C346.829414,219.49468 336.278802,213.21244 325.5,204.500001 C320.34273,200.331412 315.115814,193.582401 311,190.499999 C309.415389,189.313258 303.921728,187.360398 303.921728,187.360398 C299.952119,184.487347 295.09107,181.770482 289.338437,179.20972 C283.585803,176.648957 281.693701,175.467415 275,173.5 L271.5,171.5 C271.5,171.5 267.682522,167.454463 266.5,167 C261.213432,164.968282 256.78271,166.444252 251,165.5 C243.923789,164.344534 236.200032,166 229.8,166 C224.871814,166 220.012459,166.294334 216.5,167 C215.641036,167.172569 215.463473,167.424733 214.689168,167.639504 C213.999229,167.830874 211.112506,167.782783 210.5,168 Z" id="Path" fill="#FFFFFF"></path>
                <g id="mustard" transform="translate(191.590424, 49.213212) rotate(125.000000) translate(-191.590424, -49.213212) translate(168.590424, -2.786788)">
                    <g id="Capa_1" transform="translate(0.000000, -0.000000)">
                        <g id="Group" transform="translate(0.000000, 0.000000)">
                            <polygon id="Shape" fill="#FFFFFF" points="33.6153846 19.5344828 12.3846154 19.5344828 20.5496154 -8.52651283e-14 25.4503846 -8.52651283e-14"></polygon>
                            <polygon id="Shape" fill="#727D88" points="26.5474648 2.62472664 19.5113787 2.62472653 20.5496154 2.55795385e-13 25.4503846 2.55795385e-13"></polygon>
                            <g id="HTML-JAVA-CSS-PERL" transform="translate(-0.000000, 19.000000)">
                                <mask id="mask-2" fill="white">
                                    <use xlink:href="#path-1"></use>
                                </mask>
                                <use id="Mask" fill="#FFFFFF" xlink:href="#path-1"></use>
                                <text id="&lt;&gt;" mask="url(#mask-2)" font-family="Arial-BoldMT, Arial" font-size="25" font-weight="bold" line-spacing="15" letter-spacing="1.29999995" fill="#727D88">
                                    <tspan x="7.81915204" y="59.4264236">&lt;&gt;</tspan>
                                </text>
                            </g>
                            <rect id="Rectangle-path" fill="#727D88" x="1.27897692e-13" y="28.4137931" width="46" height="3.55172414"></rect>
                            <rect id="Rectangle-path" fill="#727D88" x="7.07692308" y="19.5344828" width="3.53846154" height="10.6551724"></rect>
                            <rect id="Rectangle-path" fill="#727D88" x="15.9230769" y="19.5344828" width="3.53846154" height="10.6551724"></rect>
                            <rect id="Rectangle-path" fill="#727D88" x="24.7692308" y="19.5344828" width="3.53846154" height="10.6551724"></rect>
                            <rect id="Rectangle-path" fill="#727D88" x="35.3846154" y="19.5344828" width="3.53846154" height="10.6551724"></rect>
                        </g>
                    </g>
                </g>
                <path d="M232.5,146.500001 C232.441438,147.280823 232.298686,151.781197 231.000001,155.000001 C230.146844,157.114557 228.506242,158.487518 228.000001,159.500001 C226.5,162.500001 226.499999,163.500001 225,164.500001 C224.344705,164.936864 218.488822,167.504472 216,168.500001 C213.5,169.500001 210.78775,170.097226 212.5,171.000001 C214.150341,171.870135 222.185178,172.066391 222.5,172.000001 C223.8013,171.725579 235.207804,173.500001 235.499999,173.500001 C235.646767,173.500001 248.896883,168.377079 248.999999,168.000001 C249.067073,167.754719 242.593106,166.89459 240.000001,165.500001 C237.406896,164.105411 237.500001,161.500001 236.358602,157.27528 C235.026328,152.344064 236.26444,143.381326 236.5,141.500001 C236.864353,138.590053 238,130.233061 238,122.000001 C238,117.025494 238.539282,110.823304 238,106.500001 C237.551169,102.901827 238.076923,90.073573 237.5,86.9999999 C236.801465,83.2785359 236.281884,78.8679912 235.5,77.5 C235.033121,76.6831438 234.982789,79.5000001 234.5,79.5000001 C234.076598,79.5000001 233.392634,80.385766 233,81 C232.486386,81.8034959 235.370343,86.3019698 235,87.9999999 C234.240876,91.4805948 236.221609,96.784583 235,102.000001 C234.301812,104.980778 235,112.47707 235,116.500001 C235,125.602611 232.816128,142.284952 232.5,146.500001 Z" id="Oval" fill="#FFFFFF"></path>
            </g>
        </g>
    </g>
</svg>