<?xml version="1.0" encoding="UTF-8" standalone="no"?>
<svg width="308px" height="353px" viewBox="0 0 308 353" version="1.1" xmlns="http://www.w3.org/2000/svg" xmlns:xlink="http://www.w3.org/1999/xlink" style="background: #2B3E50;">
    <!-- Generator: Sketch 39.1 (31720) - http://www.bohemiancoding.com/sketch -->
    <title>Artboard Copy</title>
    <desc>Created with Sketch.</desc>
    <defs>
        <path d="M3.77023077,84 C1.68784615,84 4.61852778e-13,82.3058276 4.61852778e-13,80.2156379 L4.61852778e-13,3.41315517 C4.61852778e-13,1.82375862 1.28446154,0.534482759 2.86792308,0.534482759 L43.1303077,0.534482759 C44.7155385,0.534482759 46,1.82375862 46,3.41315517 L46,80.2156379 C46,82.3058276 44.3121538,84 42.2297692,84 L3.77023077,84 Z" id="path-1"></path>
    </defs>
    <g id="Page-1" stroke="none" stroke-width="1" fill="none" fill-rule="evenodd">
        <g id="Artboard-Copy">
            <g id="Group-2" transform="translate(76.000000, 65.000000)">
                <g id="mustard" transform="translate(55.788164, 48.666472) rotate(125.000000) translate(-55.788164, -48.666472) translate(32.788164, -3.333528)">
                    <g id="Capa_1" transform="translate(0.000000, -0.000000)">
                        <g id="Group" transform="translate(0.000000, 0.000000)">
                            <polygon id="Shape" fill="#FFFFFF" points="33.6153846 19.5344828 12.3846154 19.5344828 20.5496154 -1.13686838e-13 25.4503846 -1.13686838e-13"></polygon>
                            <polygon id="Shape" fill="#727D88" points="26.5474648 2.62472664 19.5113787 2.62472653 20.5496154 3.69482223e-13 25.4503846 3.69482223e-13"></polygon>
                            <g id="HTML-JAVA-CSS-PERL" transform="translate(-0.000000, 19.000000)">
                                <mask id="mask-2" fill="white">
                                    <use xlink:href="#path-1"></use>
                                </mask>
                                <use id="Mask" fill="#FFFFFF" xlink:href="#path-1"></use>
                                <text id="&lt;&gt;" mask="url(#mask-2)" font-family="Arial-BoldMT, Arial" font-size="25" font-weight="bold" line-spacing="15" letter-spacing="1.29999995" fill="#727D88">
                                    <tspan x="7.81915204" y="59.4264236">&lt;&gt;</tspan>
                                </text>
                            </g>
                            <rect id="Rectangle-path" fill="#727D88" x="1.27897692e-13" y="28.4137931" width="46" height="3.55172414"></rect>
                            <rect id="Rectangle-path" fill="#727D88" x="7.07692308" y="19.5344828" width="3.53846154" height="10.6551724"></rect>
                            <rect id="Rectangle-path" fill="#727D88" x="15.9230769" y="19.5344828" width="3.53846154" height="10.6551724"></rect>
                            <rect id="Rectangle-path" fill="#727D88" x="24.7692308" y="19.5344828" width="3.53846154" height="10.6551724"></rect>
                            <rect id="Rectangle-path" fill="#727D88" x="35.3846154" y="19.5344828" width="3.53846154" height="10.6551724"></rect>
                        </g>
                    </g>
                </g>
            </g>
        </g>
    </g>
</svg>